<?xml version="1.0" standalone="no"?><!DOCTYPE svg PUBLIC "-//W3C//DTD SVG 1.1//EN" "http://www.w3.org/Graphics/SVG/1.1/DTD/svg11.dtd"><svg t="1580533706212" class="icon" viewBox="0 0 1024 1024" version="1.1" xmlns="http://www.w3.org/2000/svg" p-id="1137" xmlns:xlink="http://www.w3.org/1999/xlink" width="200" height="200"><defs><style type="text/css"></style></defs><path d="M718.2 932.4zM94.8 932.4zM920.1 64zM491.5 960C272.4 960 94.8 782.4 94.8 563.3c0-165.8 101.8-307.9 246.2-367.1v0.1c4.3-1.5 8.9-2.3 13.7-2.3 22.6 0 41.1 18.4 41.1 41 0 17.8-11.4 33.1-27.4 38.7-112.5 47.9-191.5 159.5-191.5 289.6 0 173.8 140.8 314.6 314.6 314.6S806.1 737 806.1 563.3c0-130-78.9-241.7-191.5-289.6-16-5.6-27.3-20.9-27.3-38.7 0-22.7 18.3-41 41-41 4.8 0 9.3 0.8 13.7 2.3v-0.1c144.5 59.3 246.2 201.3 246.2 367.1 0 219.1-177.6 396.7-396.7 396.7z m0-424c-22.6 0-41-18.4-41-41.1V125.5c0-22.6 18.4-41 41-41 22.7 0 41 18.4 41 41V494.8c0 22.8-18.3 41.2-41 41.2z" p-id="1138" fill="#d81e06"></path></svg>